<svg id="Layer_1" data-name="Layer 1" xmlns="http://www.w3.org/2000/svg" viewBox="0 0 1920 1078"><defs><style>.cls-1,.cls-2,.cls-3{fill:none;stroke-width:2px;}.cls-1{stroke:#000;}.cls-1,.cls-2{stroke-linecap:round;stroke-linejoin:round;}.cls-2,.cls-3{stroke:#fff;}.cls-3{stroke-miterlimit:10;}</style></defs><polygon points="0.5 261.44 1919.5 0.57 1919.5 818.56 0.5 1077.43 0.5 261.44"/><path d="M1919,2.81v817L1,1078.52v-815L1919,2.81m1-1.14L0,262.67v817l1920-259V1.67Z" transform="translate(-0.02 -1.67)"/><polyline class="cls-1" points="582.29 1057.09 582.29 1025.07 559.95 1002.73"/><polyline class="cls-1" points="567.29 1000.73 588.75 1022.2 588.75 1036.69"/><polyline class="cls-1" points="573.58 998.3 599.51 1024.23 609.55 1024.23"/><polyline class="cls-1" points="557.42 1055.09 557.42 1032.96 565.25 1025.14 565.25 1017.63 549.72 1002.1"/><polyline class="cls-1" points="569.58 1061 569.58 1025.3 564.99 1021.01"/><path class="cls-1" d="M548.61,1044.9v-10.27l8.88-8.88a3.59,3.59,0,0,0,0-5.09l-14.77-14.77" transform="translate(-0.02 -1.67)"/><polyline class="cls-2" points="559 1002 523.89 966.66 523.89 954.17"/><polyline class="cls-2" points="531.35 934.76 531.35 964.79 567.01 1001.01"/><polyline class="cls-2" points="570.05 964.76 570.05 994.77 575.58 1000.3"/><line class="cls-2" x1="550.72" y1="1003.1" x2="504.61" y2="956.99"/><line class="cls-2" x1="542.89" y1="1004.41" x2="505.15" y2="966.67"/><line class="cls-2" x1="549.69" y1="983.13" x2="549.69" y2="940.34"/><line class="cls-2" x1="561.01" y1="993.87" x2="561.01" y2="977.21"/><polyline class="cls-2" points="540.94 947.89 540.94 956.68 549.26 965"/><polyline class="cls-1" points="1043.01 937.54 1096.52 989.87 1096.53 1020.25"/><polyline class="cls-1" points="1070.49 1010.54 1070.48 973.13 1035.68 939.09"/><polyline class="cls-1" points="1033.8 1010.83 1033.78 954.73 1019.6 940.86"/><polyline class="cls-1" points="1057.34 936.03 1111 988.51 1111 1005.37"/><polyline class="cls-1" points="1064.36 934.35 1119.97 988.74 1119.98 1020.07"/><polyline class="cls-1" points="1026.49 940.39 1048.64 962.05 1048.66 1042.82"/><polyline class="cls-1" points="1047.88 961.31 1040.75 968.4 1040.76 996.57"/><polyline class="cls-1" points="1057.35 960.28 1057.37 1018.63 1061.27 1022.44 1061.27 1040.95"/><polyline class="cls-1" points="1048.66 1018.3 1054.61 1023.37 1054.62 1050.91"/><polyline class="cls-2" points="1023.1 880.66 1023.12 918.07 1043.01 937.54"/><polyline class="cls-2" points="1035.68 939.09 997.08 901.33 997.07 870.95"/><polyline class="cls-2" points="1019.6 940.86 977.4 899.58 948.92 899.8"/><polyline class="cls-2" points="1051.42 880.44 1051.43 908.6 1044.01 915.97 1044.02 922.99 1057.34 936.03"/><polyline class="cls-2" points="1033.76 862.89 1033.78 913.1 1043.83 922.64"/><path class="cls-2" d="M1059.82,900.61v9.59l-8.42,8.37a3.34,3.34,0,0,0,0,4.76l13,12.68" transform="translate(-0.02 -1.67)"/><polyline class="cls-2" points="948.92 890.26 975.04 890.06 1026.49 940.39"/><polyline class="cls-2" points="983.51 898.35 983.51 883.63 977.06 877.33 977.05 867.55"/><polyline class="cls-2" points="943.02 866.35 957.94 880.95 973.11 880.83 983.13 890.64"/><polyline class="cls-3" points="956.79 863.49 956.79 870.71 967.05 880.74"/><circle class="cls-1" cx="1111" cy="1008" r="3"/><circle class="cls-1" cx="1034" cy="1015" r="3"/><circle class="cls-1" cx="549" cy="1047" r="3"/><circle class="cls-1" cx="557" cy="1059" r="3"/><circle class="cls-1" cx="1054" cy="1055" r="3"/><circle class="cls-2" cx="570" cy="961" r="3"/><circle class="cls-1" cx="1070" cy="1015" r="3"/><circle class="cls-1" cx="1096" cy="1024" r="3"/><circle class="cls-2" cx="531" cy="931" r="3"/><circle class="cls-2" cx="503" cy="964" r="3"/><circle class="cls-1" cx="1048" cy="1047" r="3"/><circle class="cls-2" cx="945" cy="900" r="3"/><circle class="cls-1" cx="613" cy="1024" r="3"/><circle class="cls-2" cx="946" cy="890" r="3"/><circle class="cls-1" cx="1061" cy="1044" r="3"/><circle class="cls-2" cx="502" cy="954" r="3"/><circle class="cls-2" cx="524" cy="951" r="3"/><circle class="cls-2" cx="550" cy="936" r="3"/><circle class="cls-2" cx="561" cy="974" r="3"/><circle class="cls-1" cx="589" cy="1039" r="3"/><circle class="cls-1" cx="581" cy="1059" r="3"/><circle class="cls-1" cx="570" cy="1063" r="3"/><circle class="cls-1" cx="1041" cy="1000" r="3"/><circle class="cls-1" cx="1120" cy="1023" r="3"/><circle class="cls-2" cx="541" cy="944" r="3"/><circle class="cls-2" cx="997" cy="867" r="3"/><circle class="cls-2" cx="957" cy="860" r="3"/><circle class="cls-2" cx="977" cy="864" r="3"/><circle class="cls-2" cx="940" cy="863" r="3"/><circle class="cls-2" cx="1034" cy="860" r="3"/><circle class="cls-2" cx="1060" cy="895" r="3"/><circle class="cls-2" cx="1051" cy="877" r="3"/><circle class="cls-2" cx="1023" cy="877" r="3"/><polyline class="cls-1" points="1272.44 87.51 1239.9 53.56 1239.9 12.71"/><polyline class="cls-1" points="1250.74 32.03 1250.74 52.36 1282.96 85.5"/><polyline class="cls-1" points="1294.44 49.03 1294.44 74.48 1302.87 83.29"/><polyline class="cls-1" points="1254.8 90.39 1240 75 1240 54"/><polyline class="cls-1" points="1244.68 91.58 1226.41 71.84 1226.41 29.71"/><polyline class="cls-1" points="1293.91 83.85 1278.13 67.48 1278.13 18.84"/><polyline class="cls-1" points="1279.12 68.49 1286.39 61.03 1286.39 43.13"/><polyline class="cls-1" points="1266.8 68.77 1266.8 51.3 1261.73 46.13 1261.73 22.23"/><polyline class="cls-1" points="1278.13 51.82 1270.39 44.95 1270.39 7.9"/><polyline class="cls-2" points="1299.29 165.22 1299.29 114.89 1273.44 88.51"/><polyline class="cls-2" points="1284.96 86.5 1335.13 137.69 1335.13 144.55"/><line class="cls-2" x1="1303.87" y1="84.29" x2="1358.71" y2="140.25"/><polyline class="cls-2" points="1262.48 165.22 1262.48 127.34 1272.12 117.51 1272.12 108.06 1254.8 90.39"/><polyline class="cls-2" points="1285.43 189 1285.43 121.48 1272.37 108.53"/><path class="cls-2" d="M1251.62,141.92V129l10.94-11.17a4.58,4.58,0,0,0,0-6.4l-16.85-17.2" transform="translate(-0.02 -1.67)"/><line class="cls-2" x1="1361.78" y1="153.08" x2="1294.91" y2="84.85"/><polyline class="cls-2" points="1350.77 141.84 1350.77 161.63 1359.15 170.18 1359.15 183.32"/><polyline class="cls-2" points="1345.44 136.4 1345.44 151.13 1339.28 157.28 1339.28 183.32"/><polyline class="cls-2" points="1349.25 182.32 1349.25 169.79 1339.81 159.34"/><circle class="cls-1" cx="1295" cy="45" r="3"/><circle class="cls-1" cx="1251" cy="28" r="3"/><circle class="cls-1" cx="1226" cy="27" r="3"/><circle class="cls-1" cx="1271" cy="4" r="3"/><circle class="cls-1" cx="1279" cy="16" r="3"/><circle class="cls-1" cx="1286" cy="40" r="3"/><circle class="cls-1" cx="1262" cy="19" r="3"/><circle class="cls-1" cx="1240" cy="10" r="3"/><circle class="cls-2" cx="1362" cy="142" r="3"/><circle class="cls-2" cx="1252" cy="143" r="3"/><circle class="cls-2" cx="1365" cy="156" r="3"/><circle class="cls-2" cx="1360" cy="187" r="3"/><circle class="cls-2" cx="1349" cy="186" r="3"/><circle class="cls-2" cx="1339" cy="187" r="3"/><circle class="cls-2" cx="1335" cy="148" r="3"/><circle class="cls-2" cx="1299" cy="169" r="3"/><circle class="cls-2" cx="1263" cy="169" r="3"/><circle class="cls-2" cx="1286" cy="192" r="3"/></svg>